<svg width="1920" height="1080" viewBox="0 0 1920 1080" fill="none" xmlns="http://www.w3.org/2000/svg">
<g clip-path="url(#clip0_79_2338)">
<g opacity="0.1">
<path d="M1854.98 1303.06H1853.08C1853.08 1126.45 1837.05 1041.07 1801.15 1026.19C1782.12 1018.3 1756.72 1030.64 1723.55 1063.86L1722.2 1062.51C1755.42 1029.3 1767.74 1003.84 1759.87 984.911C1744.99 948.95 1659.55 932.975 1483 932.975V931.083C1659.59 931.083 1744.99 915.07 1759.87 879.147C1767.74 860.125 1755.42 834.724 1722.2 801.545L1723.55 800.201C1756.76 833.437 1782.22 845.759 1801.15 837.866C1837.11 822.99 1853.08 737.552 1853.08 561H1854.98C1854.98 737.609 1870.99 822.99 1906.89 837.866C1925.82 845.759 1951.31 833.437 1984.49 800.201L1985.82 801.545C1952.6 834.762 1940.28 860.219 1948.15 879.147C1963.03 915.108 2048.47 931.083 2225.02 931.083V932.975C2048.43 932.975 1963.03 948.988 1948.15 984.911C1940.28 1003.84 1952.6 1029.33 1985.82 1062.51L1984.49 1063.86C1951.26 1030.64 1925.82 1018.32 1906.89 1026.19C1871.06 1041.07 1854.98 1126.45 1854.98 1303.06ZM1789.43 1022.01C1793.72 1021.98 1797.98 1022.81 1801.94 1024.45C1833.61 1037.55 1850.13 1103.21 1854.1 1234.75C1858.06 1103.21 1874.6 1037.55 1906.25 1024.45C1922.49 1017.71 1942.91 1024.87 1968.37 1046.27C1946.96 1020.82 1939.83 1000.37 1946.54 984.154C1959.66 952.489 2025.32 935.947 2156.84 931.953C2025.3 927.997 1959.66 911.455 1946.54 879.809C1939.83 863.569 1946.96 843.128 1968.37 817.671C1942.91 839.078 1922.49 846.232 1906.25 839.513C1874.6 826.397 1858.06 760.738 1854.1 629.195C1850.13 760.738 1833.61 826.397 1801.94 839.513C1785.7 846.232 1765.28 839.078 1739.82 817.671C1761.23 843.128 1768.36 863.569 1761.65 879.809C1748.53 911.455 1682.89 927.997 1551.35 931.953C1682.89 935.909 1748.53 952.451 1761.65 984.116C1768.36 1000.34 1761.23 1020.78 1739.82 1046.24C1759.13 1030.03 1775.48 1022.01 1789.43 1022.01Z" fill="white"/>
<path d="M1854.98 1273.02H1853.08C1853.08 1110.74 1838.38 1032.29 1805.39 1018.64C1787.94 1011.41 1764.64 1022.73 1734.13 1053.24L1732.78 1051.89C1763.29 1021.38 1774.61 998.066 1767.38 980.615C1753.71 947.644 1675.26 932.937 1513 932.937V931.045C1675.26 931.045 1753.71 916.338 1767.38 883.367C1774.61 865.916 1763.29 842.598 1732.78 812.087L1734.13 810.763C1764.64 841.254 1787.95 852.573 1805.39 845.342C1838.45 831.639 1853.08 753.243 1853.08 590.98H1854.98C1854.98 753.243 1869.66 831.696 1902.65 845.342C1920.1 852.573 1943.42 841.254 1973.91 810.763L1975.26 812.087C1944.75 842.598 1933.43 865.916 1940.66 883.367C1954.32 916.338 2032.78 931.045 2195.04 931.045V932.937C2032.78 932.937 1954.32 947.644 1940.66 980.615C1933.43 998.066 1944.75 1021.38 1975.26 1051.89L1973.91 1053.24C1943.48 1022.8 1920.18 1011.45 1902.73 1018.64C1869.74 1032.27 1854.98 1110.74 1854.98 1273.02ZM1794.6 1014.65C1798.55 1014.62 1802.47 1015.38 1806.12 1016.88C1835.04 1028.86 1850.24 1088.48 1854.03 1207.76C1857.81 1088.52 1872.96 1028.86 1901.91 1016.88C1916.73 1010.75 1935.32 1017.14 1958.43 1036.41C1939.16 1013.28 1932.78 994.772 1938.92 979.896C1950.97 950.975 2010.59 935.738 2129.87 931.953C2010.63 928.168 1950.97 913.026 1938.99 884.048C1932.86 869.247 1939.24 850.661 1958.51 827.551C1935.4 846.8 1916.87 853.178 1901.99 847.065C1873.07 835.084 1857.87 775.463 1854.1 656.185C1850.32 775.426 1835.18 835.084 1806.2 847.065C1791.38 853.197 1772.79 846.8 1749.68 827.551C1768.95 850.661 1775.33 869.191 1769.2 884.048C1757.22 913.026 1697.6 928.168 1578.32 931.953C1697.56 935.738 1757.22 950.88 1769.2 979.858C1775.33 994.659 1768.95 1013.25 1749.68 1036.37C1767.15 1021.84 1782.05 1014.65 1794.67 1014.65H1794.6Z" fill="white"/>
<path d="M1854.98 1242.96H1853.08C1853.08 1095.03 1839.68 1023.52 1809.55 1011.07C1793.69 1004.5 1772.45 1014.85 1744.65 1042.6L1743.31 1041.28C1771.11 1013.47 1781.42 992.255 1774.84 976.375C1762.4 946.338 1690.88 932.938 1542.96 932.938V931.045C1690.88 931.045 1762.4 917.644 1774.84 887.626C1781.42 871.746 1771.05 850.51 1743.31 822.725L1744.65 821.381C1772.43 849.166 1793.67 859.481 1809.55 852.914C1839.59 840.459 1853.08 768.953 1853.08 621.018H1854.98C1854.98 768.953 1868.36 840.459 1898.39 852.914C1914.27 859.481 1935.51 849.128 1963.3 821.381L1964.64 822.725C1936.84 850.51 1926.52 871.746 1933.11 887.626C1945.54 917.644 2017.07 931.045 2164.98 931.045V932.938C2017.07 932.938 1945.54 946.338 1933.11 976.375C1926.52 992.236 1936.89 1013.47 1964.64 1041.28L1963.3 1042.6C1935.51 1014.82 1914.27 1004.5 1898.39 1011.07C1868.43 1023.52 1854.98 1095.03 1854.98 1242.96ZM1799.92 1007.26C1803.53 1007.25 1807.1 1007.95 1810.44 1009.33C1836.65 1020.17 1850.51 1073.81 1854.1 1180.92C1857.68 1073.81 1871.54 1020.17 1897.75 1009.33C1911.13 1003.78 1927.88 1009.42 1948.68 1026.57C1931.54 1005.75 1925.97 989.019 1931.44 975.637C1942.29 949.442 1995.91 935.568 2103.03 931.991C1995.91 928.414 1942.29 914.54 1931.44 888.345C1925.9 874.964 1931.54 858.194 1948.68 837.412C1927.86 854.56 1911.13 860.125 1897.75 854.655C1871.54 843.81 1857.68 790.189 1854.1 683.061C1850.51 790.189 1836.65 843.81 1810.44 854.655C1797.06 860.2 1780.31 854.655 1759.51 837.412C1776.65 858.232 1782.22 874.964 1776.77 888.345C1765.9 914.54 1712.28 928.414 1605.14 931.953C1712.25 935.531 1765.87 949.404 1776.73 975.599C1782.26 988.981 1776.62 1005.75 1759.47 1026.53C1775.16 1013.66 1788.54 1007.26 1799.92 1007.26Z" fill="white"/>
<path d="M1854.98 1212.93H1853.08C1853.08 1079.32 1840.99 1014.74 1813.9 1003.52C1799.59 997.593 1780.44 1006.9 1755.36 1031.91L1754.04 1030.56C1779.12 1005.49 1788.43 986.35 1782.43 972.041C1771.2 944.937 1706.62 932.862 1573.04 932.862V930.969C1706.62 930.969 1771.2 918.893 1782.43 891.79C1788.37 877.481 1779.06 858.345 1754.04 833.267L1755.36 831.923C1780.44 857.002 1799.59 866.314 1813.9 860.314C1840.99 849.09 1853.08 784.605 1853.08 650.923H1854.98C1854.98 784.511 1867.05 849.09 1894.14 860.314C1908.44 866.238 1927.6 856.926 1952.68 831.923L1954.02 833.267C1928.94 858.345 1919.63 877.481 1925.63 891.79C1936.85 918.893 2001.43 930.969 2135.02 930.969V932.862C2001.43 932.862 1936.85 944.937 1925.63 972.041C1919.71 986.35 1929.02 1005.49 1954.02 1030.56L1952.68 1031.91C1927.6 1006.83 1908.44 997.517 1894.14 1003.52C1867.13 1014.74 1854.98 1079.32 1854.98 1212.93ZM1805.14 999.902C1808.42 999.889 1811.67 1000.53 1814.7 1001.79C1838.19 1011.52 1850.66 1059.2 1854.1 1154.25C1857.47 1059.2 1870 1011.52 1893.49 1001.79C1905.45 996.835 1920.41 1001.79 1938.92 1016.8C1923.87 998.331 1918.95 983.378 1923.91 971.378C1933.64 947.89 1981.31 935.417 2076.39 931.972C1981.31 928.603 1933.64 916.054 1923.91 892.585C1918.95 880.604 1923.91 865.67 1938.92 847.16C1920.44 862.301 1905.51 867.128 1893.49 862.169C1870 852.44 1857.53 804.763 1854.1 709.711C1850.72 804.763 1838.19 852.44 1814.7 862.169C1802.74 867.128 1787.78 862.169 1769.27 847.16C1784.32 865.651 1789.24 880.585 1784.28 892.585C1774.55 916.054 1726.88 928.546 1631.81 931.972C1726.88 935.36 1774.55 947.89 1784.28 971.378C1789.24 983.34 1784.28 998.293 1769.27 1016.8C1783.17 1005.5 1795.03 999.902 1805.14 999.902Z" fill="white"/>
<path d="M1854.98 1182.87H1853.08C1853.08 1063.63 1842.31 1005.98 1818.14 995.965C1805.42 990.684 1788.35 998.993 1766 1021.37L1764.65 1020.02C1787.01 997.649 1795.32 980.596 1790.06 967.858C1780.12 943.707 1722.49 932.938 1603.24 932.938V931.045C1722.49 931.045 1780.14 920.275 1790.15 896.124C1795.41 883.386 1787.1 866.333 1764.75 843.961L1766.09 842.617C1788.45 864.989 1805.52 873.298 1818.24 868.017C1842.39 858.024 1853.08 800.372 1853.08 681.112H1854.98C1854.98 800.353 1865.74 858.024 1889.9 868.017C1902.63 873.298 1919.69 864.989 1942.06 842.617L1943.38 843.961C1921.03 866.333 1912.72 883.386 1917.98 896.124C1928 920.275 1985.65 931.045 2104.91 931.045V932.938C1985.67 932.938 1928 943.707 1917.98 967.858C1912.72 980.596 1921.03 997.649 1943.38 1020.02L1942.06 1021.37C1919.69 998.993 1902.62 990.684 1889.9 995.965C1865.82 1005.98 1854.98 1063.61 1854.98 1182.87ZM1810.38 992.52C1813.32 992.506 1816.24 993.079 1818.96 994.205C1839.78 1002.8 1850.92 1044.61 1854.1 1127.72C1857.27 1044.61 1868.45 1002.8 1889.23 994.205C1899.81 989.814 1912.95 994.015 1929.13 1007.02C1916.15 990.817 1911.95 977.681 1916.32 967.12C1925.01 946.357 1966.65 935.152 2049.92 931.953C1966.8 928.792 1925.01 917.588 1916.39 896.806C1912.02 886.244 1916.22 873.109 1929.23 856.907C1913.02 869.91 1899.87 874.093 1889.31 869.74C1868.49 861.128 1857.34 819.318 1854.18 736.209C1851 819.318 1839.81 861.128 1819.03 869.74C1808.45 874.112 1795.32 869.91 1779.13 856.907C1792.12 873.109 1796.32 886.244 1791.95 896.806C1783.34 917.625 1741.54 928.792 1658.44 931.953C1741.54 935.114 1783.36 946.319 1791.95 967.101C1796.32 977.662 1792.12 990.798 1779.13 1007C1791.13 997.347 1801.51 992.52 1810.38 992.52Z" fill="white"/>
<path d="M1854.98 1152.83H1853.08C1853.08 1049.32 1843.34 997.082 1822.4 988.413C1811.23 983.795 1796.26 991.082 1776.62 1010.75L1775.27 1009.4C1794.92 989.757 1802.23 974.766 1797.61 963.618C1788.94 942.685 1736.7 932.937 1633.19 932.937V931.045C1736.7 931.045 1788.94 921.297 1797.61 900.383C1802.23 889.216 1794.92 874.244 1775.27 854.579L1776.62 853.254C1796.26 872.9 1811.23 880.206 1822.4 875.569C1843.41 866.92 1853.08 814.605 1853.08 711.168H1854.98C1854.98 814.662 1864.7 866.92 1885.64 875.569C1896.8 880.206 1911.78 872.9 1931.42 853.254L1932.77 854.579C1913.12 874.244 1905.81 889.216 1910.43 900.383C1919.1 921.297 1971.34 931.045 2074.85 931.045V932.937C1971.34 932.937 1919.1 942.685 1910.43 963.618C1905.81 974.766 1913.12 989.757 1932.77 1009.4L1931.42 1010.75C1911.78 991.082 1896.8 983.776 1885.64 988.413C1864.78 997.082 1854.98 1049.3 1854.98 1152.83ZM1815.55 985.176C1818.15 985.161 1820.72 985.663 1823.12 986.653C1841.23 994.223 1851.08 1030.19 1854.03 1101.45C1856.96 1030.13 1866.8 994.148 1884.92 986.653C1894.08 982.867 1905.43 986.369 1919.37 997.347C1908.39 983.416 1904.89 972.06 1908.69 962.88C1916.26 944.786 1952.22 934.925 2023.48 931.991C1952.15 929.057 1916.19 919.196 1908.69 901.102C1904.91 891.922 1908.39 880.585 1919.37 866.636C1905.43 877.632 1894.08 881.134 1884.92 877.329C1866.8 869.759 1856.96 833.797 1854.03 762.536C1851.08 833.854 1841.23 869.834 1823.12 877.329C1813.96 881.115 1802.6 877.632 1788.67 866.636C1799.65 880.585 1803.15 891.922 1799.35 901.102C1791.78 919.196 1755.82 929.057 1684.56 931.991C1755.89 934.925 1791.85 944.786 1799.35 962.88C1803.13 972.06 1799.65 983.416 1788.67 997.347C1799.06 989.208 1807.98 985.176 1815.63 985.176H1815.55Z" fill="white"/>
<path d="M1854.98 1122.78H1853.08C1853.08 1033.42 1844.68 988.394 1826.58 980.823C1816.99 976.867 1804.1 983.17 1787.16 1000.09L1785.82 998.766C1802.76 981.826 1809.06 968.937 1805.08 959.341C1797.63 941.322 1752.52 932.843 1663.13 932.843V930.95C1752.5 930.95 1797.51 922.565 1805.08 904.452C1809.06 894.875 1802.76 881.966 1785.82 865.046L1787.16 863.702C1804.25 880.85 1817.12 887.096 1826.74 883.14C1844.75 875.569 1853.23 830.579 1853.23 741.186H1855.13C1855.13 830.56 1863.51 875.569 1881.53 883.14C1891.13 887.115 1904.02 880.812 1920.96 863.872L1922.3 865.216C1905.36 882.137 1899.06 895.045 1903.03 904.622C1910.49 922.66 1955.59 931.12 2044.99 931.12V933.013C1955.61 933.013 1910.6 941.417 1903.03 959.511C1899.06 969.107 1905.36 981.996 1922.3 998.936L1920.96 1000.26C1904.02 983.321 1891.11 977.038 1881.53 980.993C1863.44 988.318 1854.98 1033.42 1854.98 1122.78ZM1820.91 977.813C1823.17 977.799 1825.42 978.237 1827.51 979.101C1842.94 985.498 1851.45 1015.71 1854.16 1075.44C1856.85 1015.71 1865.37 985.498 1880.79 979.101C1888.57 975.883 1898.17 978.703 1909.88 987.712C1900.85 975.996 1898.03 966.419 1901.25 958.64C1907.65 943.196 1937.88 934.679 1997.59 931.991C1937.88 929.303 1907.65 920.786 1901.25 905.36C1898.03 897.562 1900.85 887.985 1909.88 876.269C1898.17 885.298 1888.57 888.099 1880.79 884.881C1865.37 878.484 1856.85 848.276 1854.16 788.542C1851.45 848.276 1842.94 878.484 1827.51 884.881C1819.73 888.099 1810.14 885.298 1798.42 876.269C1807.45 887.985 1810.27 897.562 1807.05 905.36C1800.65 920.786 1770.43 929.303 1710.71 931.991C1770.43 934.679 1800.65 943.196 1807.05 958.64C1810.27 966.419 1807.45 975.996 1798.42 987.712C1806.98 981.164 1814.41 977.813 1820.91 977.813Z" fill="white"/>
<path d="M1854.98 1092.83H1853.08C1853.08 1017.6 1846.02 979.65 1830.92 973.385C1822.89 970.054 1812.09 975.277 1797.85 989.586L1796.53 988.243C1810.74 974.028 1816.04 963.221 1812.71 955.196C1806.46 940.054 1768.5 933.032 1693.28 933.032V931.139C1768.5 931.139 1806.46 924.098 1812.71 908.976C1816.04 900.951 1810.82 890.143 1796.53 875.929L1797.85 874.585C1812.09 888.818 1822.89 894.099 1830.9 890.787C1846.04 884.522 1853.08 846.573 1853.08 771.337H1854.98C1854.98 846.573 1862.02 884.522 1877.14 890.787C1885.16 894.099 1895.97 888.894 1910.19 874.585L1911.53 875.929C1897.3 890.143 1892 900.951 1895.33 908.976C1901.59 924.117 1939.54 931.139 2014.76 931.139V933.032C1939.54 933.032 1901.59 940.073 1895.33 955.196C1892 963.221 1897.22 974.123 1911.53 988.243L1910.19 989.586C1895.95 975.372 1885.15 970.072 1877.14 973.385C1862.09 979.555 1854.98 1017.5 1854.98 1092.83ZM1826.02 970.546C1827.96 970.523 1829.9 970.897 1831.69 971.643C1844.47 976.943 1851.64 1001.51 1854.09 1049.85C1856.51 1001.51 1863.68 976.943 1876.46 971.643C1882.89 968.975 1890.73 971.151 1900.25 978.268C1893.13 968.804 1890.97 960.893 1893.62 954.477C1898.92 941.682 1923.49 934.508 1971.83 932.086C1923.49 929.663 1898.92 922.49 1893.62 909.695C1890.97 903.279 1893.13 895.443 1900.25 885.903C1890.79 893.02 1882.89 895.197 1876.46 892.528C1863.68 887.247 1856.51 862.68 1854.09 814.321C1851.64 862.68 1844.47 887.247 1831.69 892.528C1825.28 895.197 1817.42 893.02 1807.9 885.903C1815.02 895.367 1817.18 903.279 1814.53 909.695C1809.23 922.49 1784.66 929.663 1736.32 932.086C1784.66 934.508 1809.23 941.682 1814.53 954.477C1817.18 960.893 1815.02 968.748 1807.9 978.268C1814.83 973.006 1820.91 970.451 1826.09 970.451L1826.02 970.546Z" fill="white"/>
<path d="M1854.98 1062.68H1853.08C1853.08 1001.61 1847.4 970.792 1835.16 965.738C1828.7 963.07 1820.02 967.366 1808.49 978.874L1807.15 977.53C1818.65 966.022 1822.95 957.297 1820.28 950.843C1815.21 938.635 1784.41 932.938 1723.32 932.938V931.045C1784.41 931.045 1815.21 925.367 1820.28 913.14C1822.95 906.686 1818.65 897.998 1807.15 886.452L1808.49 885.109C1820 896.616 1828.7 900.913 1835.16 898.244C1847.4 893.19 1853.08 862.377 1853.08 801.356H1854.98C1854.98 862.434 1860.65 893.247 1872.88 898.301C1879.32 900.988 1888.02 896.673 1899.55 885.165L1900.89 886.509C1889.38 898.017 1885.09 906.742 1887.76 913.196C1892.83 925.404 1923.62 931.102 1984.72 931.102V932.994C1923.62 932.994 1892.83 938.672 1887.76 950.899C1885.09 957.354 1889.38 966.041 1900.89 977.587L1899.55 978.93C1888.06 967.423 1879.33 963.126 1872.88 965.795C1860.65 970.792 1854.98 1001.61 1854.98 1062.68ZM1831.26 963.088C1832.84 963.079 1834.41 963.388 1835.88 963.997C1846.06 968.199 1851.89 987.239 1854.03 1024.56C1856.17 987.315 1861.98 968.274 1872.16 963.997C1877.23 961.877 1883.37 963.448 1890.75 968.729C1885.47 961.328 1883.91 955.196 1886.02 950.123C1890.24 939.959 1909.28 934.13 1946.58 931.991C1909.33 929.852 1890.29 924.023 1886.02 913.859C1883.91 908.786 1885.47 902.654 1890.75 895.254C1883.37 900.553 1877.21 902.105 1872.16 900.004C1861.98 895.783 1856.17 876.743 1854.03 839.437C1851.89 876.686 1846.06 895.727 1835.88 900.004C1830.82 902.086 1824.67 900.553 1817.29 895.254C1822.57 902.654 1824.12 908.786 1822.02 913.859C1817.82 924.023 1798.76 929.852 1761.46 931.991C1798.69 934.13 1817.75 939.959 1822.02 950.123C1824.12 955.196 1822.57 961.328 1817.29 968.729C1822.63 964.962 1827.27 963.088 1831.34 963.088H1831.26Z" fill="white"/>
<path d="M1854.98 1032.65H1853.08C1853.08 985.706 1848.73 962.047 1839.42 958.186C1834.53 956.161 1827.89 959.454 1819.11 968.237L1817.76 966.912C1826.57 958.11 1829.86 951.467 1827.83 946.603C1824.05 937.272 1800.31 932.937 1753.37 932.937V931.045C1800.31 931.045 1823.97 926.71 1827.83 917.379C1829.86 912.515 1826.57 905.872 1817.76 897.07L1819.11 895.746C1827.89 904.528 1834.53 907.821 1839.42 905.815C1848.73 902.029 1853.08 878.295 1853.08 831.336H1854.98C1854.98 878.295 1859.31 901.954 1868.62 905.815C1873.5 907.821 1880.15 904.528 1888.93 895.746L1890.27 897.07C1881.47 905.872 1878.18 912.515 1880.21 917.379C1883.99 926.71 1907.73 931.045 1954.66 931.045V932.937C1907.73 932.937 1884.07 937.272 1880.21 946.603C1878.18 951.467 1881.47 958.11 1890.27 966.912L1888.93 968.237C1880.15 959.454 1873.49 956.161 1868.62 958.186C1859.39 962.047 1854.98 985.706 1854.98 1032.65ZM1836.5 955.726C1837.75 955.718 1838.98 955.956 1840.14 956.426C1847.71 959.568 1852.21 973.271 1854.03 999.807C1855.83 973.309 1860.31 959.568 1867.9 956.426C1871.69 954.874 1876.14 955.858 1881.45 959.435C1877.88 954.098 1876.91 949.631 1878.46 945.884C1881.61 938.313 1895.29 933.808 1921.84 931.991C1895.35 930.098 1881.61 925.707 1878.46 918.117C1876.91 914.332 1877.88 909.884 1881.45 904.566C1876.12 908.124 1871.65 909.108 1867.9 907.556C1860.33 904.414 1855.83 890.73 1854.03 864.175C1852.14 890.673 1847.73 904.414 1840.14 907.556C1836.35 909.108 1831.9 908.124 1826.58 904.566C1830.16 909.884 1831.13 914.37 1829.57 918.117C1826.43 925.688 1812.75 930.174 1786.19 931.991C1812.69 933.884 1826.43 938.294 1829.57 945.884C1831.13 949.669 1830.16 954.098 1826.58 959.435C1829.47 957.237 1832.95 955.946 1836.58 955.726H1836.5Z" fill="white"/>
<path d="M1854.98 1002.59H1853.08C1853.08 969.788 1850.09 953.379 1843.62 950.615C1840.33 949.252 1835.76 951.543 1829.69 957.618L1828.34 956.293C1834.44 950.199 1836.71 945.637 1835.35 942.344C1832.7 935.928 1816.17 932.88 1783.37 932.88V930.988C1816.17 930.988 1832.7 927.997 1835.35 921.524C1836.73 918.231 1834.44 913.669 1828.34 907.594L1829.69 906.25C1835.76 912.326 1840.33 914.616 1843.62 913.253C1850.05 910.584 1853.08 894.08 1853.08 861.279H1854.98C1854.98 894.08 1857.97 910.584 1864.44 913.253C1867.73 914.616 1872.29 912.326 1878.37 906.25L1879.71 907.594C1873.64 913.669 1871.35 918.231 1872.71 921.524C1875.36 927.94 1891.88 930.988 1924.68 930.988V932.88C1891.88 932.88 1875.36 935.871 1872.71 942.344C1871.35 945.637 1873.64 950.199 1879.71 956.293L1878.37 957.618C1872.29 951.543 1867.73 949.252 1864.44 950.615C1858.04 953.284 1854.98 969.807 1854.98 1002.59ZM1841.73 948.344C1842.64 948.346 1843.55 948.526 1844.39 948.874C1849.51 950.994 1852.59 959.284 1854.03 975.58C1855.45 959.284 1858.53 950.975 1863.64 948.874C1866.12 947.852 1869 948.325 1872.37 950.331C1870.36 946.962 1869.89 944.085 1870.91 941.625C1873.01 936.514 1881.32 933.41 1897.62 931.991C1881.32 930.571 1873.01 927.467 1870.91 922.357C1869.89 919.896 1870.36 917.02 1872.37 913.65C1869 915.657 1866.12 916.13 1863.64 915.108C1858.53 912.988 1855.45 904.698 1854.03 888.402C1852.59 904.698 1849.51 913.007 1844.39 915.108C1841.93 916.13 1839.04 915.657 1835.69 913.65C1837.58 917.02 1838.17 919.896 1837.15 922.357C1835.03 927.467 1826.72 930.571 1810.44 931.991C1826.72 933.41 1835.04 936.514 1837.15 941.625C1838.17 944.085 1837.68 946.962 1835.69 950.331C1837.49 949.137 1839.57 948.451 1841.73 948.344V948.344Z" fill="white"/>
<path d="M1854.98 972.552H1853.08C1853.08 965.776 1853.08 945.202 1847.92 943.063C1846.21 942.363 1843.68 943.688 1840.34 947L1839.02 945.656C1842.33 942.344 1843.66 939.808 1842.94 938.086C1840.82 932.937 1820.23 932.937 1813.47 932.937V931.045C1820.23 931.045 1840.82 931.045 1842.94 925.897C1843.66 924.193 1842.33 921.638 1839.02 918.326L1840.34 916.982C1843.66 920.294 1846.21 921.638 1847.92 920.919C1853.08 918.78 1853.08 898.206 1853.08 891.43H1854.98C1854.98 898.206 1854.98 918.78 1860.12 920.919C1861.83 921.638 1864.36 920.294 1867.69 916.982L1869.02 918.326C1865.71 921.638 1864.38 924.193 1865.1 925.897C1867.22 931.045 1887.81 931.045 1894.57 931.045V932.937C1887.81 932.937 1867.22 932.937 1865.1 938.086C1864.38 939.808 1865.71 942.344 1869.02 945.656L1867.69 947C1864.36 943.688 1861.83 942.363 1860.12 943.063C1854.98 945.202 1854.98 965.776 1854.98 972.552ZM1846.93 940.981C1847.52 940.981 1848.1 941.097 1848.63 941.322C1851.3 942.42 1853.04 946.224 1854.03 953.436C1854.99 946.224 1856.74 942.42 1859.4 941.322C1860.07 941.063 1860.79 940.949 1861.51 940.988C1862.23 941.027 1862.93 941.219 1863.57 941.549C1863.24 940.906 1863.05 940.202 1863.01 939.482C1862.97 938.762 1863.09 938.041 1863.34 937.366C1864.44 934.717 1868.26 932.956 1875.47 931.991C1868.26 931.026 1864.44 929.284 1863.34 926.616C1863.09 925.941 1862.97 925.221 1863.01 924.5C1863.05 923.78 1863.24 923.076 1863.57 922.433C1862.93 922.765 1862.23 922.957 1861.51 922.996C1860.79 923.035 1860.07 922.921 1859.4 922.66C1856.74 921.562 1854.99 917.758 1854.03 910.547C1853.04 917.758 1851.3 921.562 1848.63 922.66C1847.96 922.919 1847.25 923.033 1846.53 922.994C1845.81 922.955 1845.11 922.764 1844.47 922.433C1844.8 923.076 1844.99 923.78 1845.03 924.5C1845.06 925.221 1844.95 925.941 1844.7 926.616C1843.6 929.284 1839.78 931.026 1832.57 931.991C1839.78 932.956 1843.6 934.717 1844.7 937.366C1844.95 938.041 1845.06 938.762 1845.03 939.482C1844.99 940.202 1844.8 940.906 1844.47 941.549C1845.27 941.182 1846.13 940.989 1847.01 940.981H1846.93Z" fill="white"/>
</g>
<g opacity="0.1">
<path d="M164.24 698.829L162.501 699.575C92.9218 537.249 44.5497 465.09 5.68773 465.562C-14.9051 465.802 -33.3892 487.151 -50.7985 530.754L-52.563 530.048C-35.119 486.431 -33.8233 458.178 -48.5169 443.884C-76.3583 416.692 -161.179 435.669 -323.452 505.225L-324.198 503.486C-161.89 433.914 -89.7059 385.552 -90.1853 346.673C-90.4424 326.087 -111.774 307.596 -155.377 290.187L-154.671 288.422C-111.046 305.883 -82.7939 307.179 -68.507 292.468C-41.3149 264.627 -60.2921 179.806 -129.849 17.5326L-128.109 16.7869C-58.5301 179.113 -10.1753 251.279 28.6866 250.807C49.1924 250.605 67.771 229.236 85.1728 185.616L86.92 186.329C69.476 229.946 68.1803 258.199 82.8739 272.493C110.715 299.685 195.536 280.708 357.809 211.151L358.555 212.891C196.247 282.462 124.063 330.825 124.542 369.704C124.762 390.202 146.131 408.781 189.734 426.19L189.045 427.947C145.411 410.511 117.176 409.208 102.881 423.901C75.8109 451.69 94.6614 536.504 164.24 698.829ZM-6.72859 466.333C-2.79555 464.616 1.44125 463.703 5.73237 463.648C39.9966 463.212 81.0511 517.05 136.529 636.389C88.3402 513.925 77.6771 447.06 101.604 422.554C113.875 409.963 135.465 408.493 167.296 418.139C137.592 403.175 122.98 387.198 122.765 369.642C122.346 335.37 176.177 294.298 295.491 238.811C173.027 286.999 106.18 297.655 81.6562 273.736C69.0826 261.457 67.5877 239.858 77.2337 208.026C62.2691 237.73 46.3171 252.352 28.7439 252.574C-5.51041 252.986 -46.5823 199.155 -102.043 79.8091C-53.8714 202.28 -43.1909 269.138 -67.1275 293.668C-79.4065 306.242 -100.996 307.712 -132.828 298.066C-103.123 313.031 -88.5112 329.008 -88.289 346.581C-87.877 380.835 -141.69 421.899 -261.037 477.36C-138.574 429.171 -71.7257 418.516 -47.1949 442.452C-34.6287 454.714 -33.1339 476.313 -42.7798 508.145C-31.4185 485.648 -19.5497 471.829 -6.72859 466.333Z" fill="white"/>
<path d="M152.406 671.221L150.667 671.967C86.7327 522.81 42.3074 456.496 6.60921 456.95C-12.2787 457.18 -29.2345 476.762 -45.2572 516.826L-47.0217 516.12C-30.9991 476.057 -29.7827 450.165 -43.3033 436.974C-68.8531 412.054 -146.755 429.445 -295.894 493.372L-296.64 491.632C-147.501 427.705 -81.1866 383.28 -81.6161 347.592C-81.8458 328.704 -101.436 311.731 -141.499 295.708L-140.786 293.961C-100.73 309.966 -74.8384 311.182 -61.6648 297.669C-36.672 272.047 -54.1105 194.228 -118.037 45.0884L-116.298 44.3427C-52.3708 193.482 -7.96299 259.803 27.7352 259.349C46.6231 259.119 63.5963 239.53 79.6091 199.491L81.3662 200.18C65.3435 240.243 64.1272 266.134 77.6477 279.325C103.198 304.246 181.099 286.855 330.239 222.928L330.984 224.668C181.845 288.594 115.531 333.02 115.961 368.708C116.19 387.596 135.78 404.569 175.843 420.592L175.137 422.356C135.174 406.373 109.285 405.115 96.0788 418.6C71.1258 444.123 88.4723 522.065 152.406 671.221ZM-4.88006 457.53C-1.25776 455.949 2.64243 455.103 6.59422 455.042C37.896 454.66 75.3541 503.471 125.826 611.611C82.3275 500.523 72.7409 439.724 94.6372 417.303C105.843 405.828 125.446 404.386 154.278 412.99C127.457 399.323 114.301 384.822 114.077 368.733C113.764 337.401 162.56 299.908 270.701 249.437C159.612 292.935 98.8135 302.521 76.3853 280.608C64.9177 269.42 63.4578 249.824 72.0626 220.992C58.4051 247.788 43.887 260.951 27.8049 261.193C-3.4969 261.575 -40.9549 212.764 -91.4092 104.616C-47.911 215.705 -38.3244 276.504 -60.2381 298.932C-71.4435 310.407 -91.0472 311.849 -119.872 303.262C-93.0574 316.912 -79.8947 331.43 -79.6776 347.502C-79.2732 378.856 -128.106 416.262 -236.247 466.734C-125.158 423.235 -64.3597 413.649 -41.9315 435.563C-30.4639 446.751 -29.0039 466.347 -37.6013 495.196C-27.2712 474.953 -16.4138 462.474 -4.81046 457.5L-4.88006 457.53Z" fill="white"/>
<path d="M140.565 643.596L138.826 644.342C80.5436 508.371 40.0553 447.927 7.45377 448.352C-9.71188 448.564 -25.1518 466.446 -39.7755 502.903L-41.5326 502.215C-26.9313 465.706 -25.8092 442.14 -38.1194 430.14C-61.3827 407.431 -132.403 423.293 -268.356 481.568L-269.101 479.828C-133.149 421.554 -72.6871 381.058 -73.0841 348.568C-73.2864 331.378 -91.1861 315.945 -127.636 301.339L-126.93 299.574C-90.4456 314.166 -66.8629 315.28 -54.8548 302.988C-32.1533 279.707 -47.9213 208.667 -106.203 72.6966L-104.464 71.9509C-46.1817 207.921 -5.71083 268.373 26.8038 267.986C43.9868 267.766 59.4267 249.884 74.033 213.434L75.7976 214.14C61.1888 250.632 60.0742 274.214 72.3844 286.215C95.6402 308.906 166.661 293.044 302.613 234.769L303.359 236.509C167.406 294.784 106.945 335.279 107.349 367.786C107.544 384.96 125.444 400.392 161.901 415.016L161.187 416.763C124.703 402.171 101.12 401.057 89.1124 413.35C66.4804 436.601 82.2832 507.626 140.565 643.596ZM-2.89979 448.65C0.412255 447.215 3.976 446.45 7.58539 446.401C35.9521 446.041 69.8187 489.884 115.322 586.914C76.4119 487.058 68.0136 432.298 87.8349 412.003C97.9493 401.634 115.567 400.219 141.442 407.785C117.478 395.404 105.772 382.218 105.527 367.764C105.175 339.415 148.994 305.538 246.048 260.045C146.175 298.963 91.4251 307.336 71.1369 287.532C60.7678 277.418 59.3453 259.782 66.9189 233.925C54.5387 257.889 41.3525 269.595 26.8983 269.84C-1.46839 270.199 -35.3275 226.373 -80.8206 129.319C-41.9207 229.2 -33.5299 283.942 -53.3512 304.238C-63.4656 314.607 -81.0462 316.109 -106.958 308.456C-82.9944 320.836 -71.2881 334.022 -71.0263 348.469C-70.6917 376.825 -114.51 410.702 -211.596 456.168C-111.741 417.258 -56.9912 408.884 -36.6855 428.681C-26.3338 438.803 -24.9113 456.438 -32.4849 482.295C-23.1339 464.284 -13.355 453.132 -2.89979 448.65Z" fill="white"/>
<path d="M128.731 615.988L126.992 616.733C74.3546 493.932 37.7958 439.341 8.47972 439.695C-7.0059 439.887 -20.9423 455.993 -34.1421 488.853L-35.8893 488.14C-22.7193 455.21 -21.6991 433.953 -32.851 423.166C-53.8451 402.676 -117.959 417.019 -240.743 469.649L-241.488 467.909C-118.705 415.28 -64.1056 378.738 -64.4676 349.405C-64.6425 333.912 -80.7403 319.993 -113.618 306.8L-112.93 305.043C-79.9998 318.213 -58.7259 319.226 -47.9381 308.074C-27.4657 287.088 -41.7545 223.053 -94.4216 100.183L-92.6819 99.4369C-40.0522 222.221 -3.51086 276.82 25.8052 276.465C41.2908 276.273 55.2272 260.168 68.4271 227.307L70.1916 228.012C57.0216 260.943 56.0014 282.199 67.1533 292.987C88.1474 313.477 152.261 299.133 275.045 246.504L275.791 248.243C153.007 300.873 98.4079 337.414 98.7699 366.748C98.9622 382.233 115.06 396.152 147.921 409.352L147.215 411.117C114.285 397.947 93.0109 396.934 82.223 408.086C61.8202 429.043 76.0942 493.187 128.731 615.988ZM-0.998997 439.825C2.01113 438.521 5.25159 437.832 8.53183 437.799C33.9535 437.487 64.2013 476.394 104.815 562.402C70.464 473.71 63.1968 424.952 80.9529 406.756C89.9938 397.486 105.691 396.153 128.617 402.656C107.51 391.605 97.0957 379.8 96.9259 366.817C96.6139 341.396 135.521 311.148 221.546 270.527C132.837 304.885 84.0716 312.135 65.8835 294.396C56.6055 285.338 55.28 269.659 61.7826 246.732C50.7691 267.927 38.9449 278.246 25.9445 278.423C0.522834 278.735 -29.7249 239.828 -70.3215 153.813C-35.9876 242.512 -28.7205 291.27 -46.4766 309.466C-55.5175 318.736 -71.2143 320.069 -94.1411 313.567C-73.0258 324.635 -62.6193 336.422 -62.4496 349.405C-62.145 374.809 -101.045 405.074 -187.077 445.678C-98.3606 411.337 -49.6027 404.07 -31.4072 421.826C-22.1366 430.867 -20.8037 446.564 -27.3063 469.49C-18.989 453.631 -10.2887 443.807 -0.998997 439.825Z" fill="white"/>
<path d="M116.89 588.362L115.15 589.108C68.1729 479.511 35.5612 430.764 9.40136 431.084C-4.36944 431.241 -16.7875 445.604 -28.5187 474.973L-30.2833 474.267C-18.5521 444.898 -17.6336 425.951 -27.4881 416.316C-46.136 398.033 -103.351 410.84 -212.948 457.818L-213.694 456.078C-104.097 409.1 -55.3501 376.489 -55.6623 350.346C-55.8445 336.566 -70.2 324.165 -99.559 312.409L-98.8533 310.644C-69.4943 322.4 -50.5293 323.311 -40.9193 313.447C-22.6587 294.747 -35.543 237.544 -82.528 127.93L-80.7884 127.184C-33.8108 236.781 -1.19156 285.545 24.9434 285.216C38.7316 285.051 51.1322 270.695 62.8808 241.319L64.628 242.032C52.8967 271.401 51.9783 290.349 61.8329 299.983C80.5504 318.237 137.783 305.422 247.397 258.437L248.143 260.176C138.546 307.154 89.7818 339.773 90.094 365.916C90.2762 379.696 104.632 392.097 133.991 403.853L133.302 405.61C103.926 393.862 84.961 392.951 75.351 402.815C57.1675 421.503 69.9051 478.747 116.89 588.362ZM0.911699 430.975C3.60983 429.803 6.51453 429.181 9.45591 429.145C31.9773 428.841 58.6957 462.877 94.3609 538.012C64.5235 460.379 58.3328 417.544 74.0487 401.458C82.0433 393.254 95.7717 391.941 115.768 397.517C97.4515 387.741 88.4146 377.323 88.2723 365.893C88.0771 343.387 121.935 316.683 197.219 280.934C119.568 310.779 76.7429 316.944 60.64 301.236C52.4606 293.251 51.1476 279.523 56.7159 259.509C46.9474 277.843 36.5049 286.87 25.0827 287.03C2.55383 287.317 -24.1646 253.28 -59.8124 178.138C-29.9924 255.778 -23.8017 298.614 -39.5101 314.717C-47.5121 322.904 -61.2407 324.217 -81.2373 318.641C-62.9205 328.417 -53.8835 338.834 -53.7411 350.264C-53.4541 372.793 -87.4658 399.521 -162.608 435.169C-84.9752 405.332 -42.1322 399.158 -26.0468 414.874C-17.8673 422.859 -16.5544 436.587 -22.1053 456.594C-14.879 442.994 -7.2472 434.472 0.911699 430.975Z" fill="white"/>
<path d="M105.056 560.754L103.317 561.5C62.5356 466.359 32.9958 422.185 10.3402 422.465C-1.74308 422.62 -12.6328 435.216 -22.9427 461.031L-24.7072 460.325C-14.3899 434.527 -13.5806 417.871 -22.2174 409.444C-38.4321 393.619 -90.2863 405.24 -185.427 446.021L-186.173 444.282C-91.032 403.501 -46.8582 373.961 -47.1304 351.323C-47.2852 339.239 -59.8985 328.357 -85.7035 318.022L-84.9903 316.275C-59.1927 326.593 -42.5539 327.409 -34.1169 318.748C-18.2147 302.521 -29.9356 250.627 -70.6868 155.555L-68.9471 154.81C-28.1736 249.933 1.35624 294.132 24.0044 293.835C36.0951 293.697 46.9774 281.084 57.2947 255.287L59.0518 255.975C48.7419 281.79 47.9252 298.429 56.5694 306.873C72.7766 322.681 124.631 311.059 219.772 270.278L220.517 272.018C125.377 312.799 81.2028 342.339 81.4824 364.994C81.6297 377.06 94.2505 387.96 120.048 398.277L119.342 400.042C93.5373 389.707 76.8985 388.89 68.4615 397.552C52.7059 413.737 64.2677 465.596 105.056 560.754ZM2.76763 422.19C5.14812 421.152 7.71139 420.6 10.3078 420.564C29.9388 420.386 53.1527 449.562 83.9413 513.896C58.5407 447.191 53.4115 410.243 67.107 396.217C74.0355 389.129 85.8528 387.873 102.981 392.475C87.4033 383.996 79.711 374.938 79.5911 365.002C79.421 345.388 108.589 322.157 172.931 291.386C106.208 316.794 69.2699 321.898 55.2523 308.22C48.1565 301.274 46.8908 289.482 51.4851 272.336C43.0137 287.931 33.9554 295.624 24.0368 295.736C4.40574 295.914 -18.8082 266.738 -49.5793 202.396C-24.1961 269.109 -19.0669 306.057 -32.7624 320.082C-39.6909 327.171 -51.5008 328.444 -68.6369 323.825C-53.0513 332.321 -45.3665 341.362 -45.2466 351.298C-45.0765 370.911 -74.2446 394.143 -138.586 424.914C-71.8634 399.506 -34.9254 394.402 -20.9078 408.08C-13.812 415.025 -12.5388 426.835 -17.1405 443.964C-10.7963 432.39 -4.19096 425.172 2.83717 422.16L2.76763 422.19Z" fill="white"/>
<path d="M93.2148 533.129L91.4751 533.874C56.2718 451.746 30.8082 413.671 11.1946 413.841C0.816163 413.986 -8.54765 424.857 -17.4511 447.083L-19.2082 446.395C-10.3123 424.151 -9.59728 409.821 -17.0311 402.567C-30.9841 388.944 -75.7803 398.919 -157.943 434.138L-158.689 432.398C-76.5434 397.187 -38.4781 371.748 -38.6557 352.117C-38.7755 341.749 -49.6541 332.368 -71.8902 323.489L-71.1844 321.725C-48.7197 330.752 -34.4295 331.422 -27.1506 323.999C-13.5719 309.941 -23.503 265.249 -58.7213 183.086L-56.9816 182.341C-21.7709 264.486 3.66792 302.552 23.212 302.411C33.5979 302.284 42.9617 291.413 51.8576 269.169L53.6222 269.875C44.7188 292.101 44.0113 306.449 51.4377 313.685C65.3981 327.326 110.187 317.333 192.35 282.115L193.096 283.854C110.95 319.065 72.8922 344.521 73.0623 364.135C73.1896 374.521 84.0606 383.884 106.304 392.78L105.591 394.528C83.3474 385.632 69.0075 384.942 61.7634 392.351C48.0182 406.212 58.0115 451 93.2148 533.129ZM4.79004 413.312C6.86663 412.406 9.10305 411.923 11.3684 411.893C28.0669 411.695 47.7962 436.104 73.8174 489.941C52.7542 433.979 48.6816 402.859 60.3393 390.902C66.2215 384.88 76.1525 383.691 90.4703 387.356C77.5565 380.145 71.1913 372.453 71.084 364.036C70.8793 347.32 95.3057 327.583 149.132 301.587C93.188 322.642 62.0505 326.722 50.0932 315.065C44.0637 309.165 42.8826 299.251 46.565 284.926C39.3535 297.84 31.6371 304.195 23.2196 304.303C6.52113 304.5 -13.2082 280.091 -39.212 226.247C-18.1662 282.216 -14.0936 313.336 -25.7513 325.293C-31.6335 331.315 -41.5571 332.521 -55.8823 328.839C-42.9685 336.051 -36.6034 343.742 -36.4886 352.177C-36.2913 368.875 -60.7177 388.612 -114.544 414.609C-58.6 393.553 -27.4625 389.473 -15.4978 401.148C-9.47569 407.03 -8.29463 416.944 -11.977 431.269C-6.69385 421.879 -1.17691 415.87 4.79004 413.312Z" fill="white"/>
<path d="M81.4182 505.608L79.6786 506.353C50.038 437.203 28.5984 405.104 12.2479 405.297C3.55944 405.397 -4.31583 414.456 -11.7606 433.215L-13.5078 432.502C-6.04313 413.837 -5.42992 401.816 -11.6533 395.752C-23.3596 384.296 -61.0231 392.8 -130.156 422.433L-130.902 420.694C-61.7688 391.06 -29.6456 369.631 -29.8627 353.27C-29.9626 344.582 -39.0219 336.707 -57.7562 329.272L-57.0678 327.515C-38.3783 334.989 -26.3645 335.585 -20.3108 329.386C-8.86186 317.663 -17.3412 280.009 -46.9818 210.859L-45.2421 210.113C-15.6016 279.263 5.82067 311.369 22.1886 311.17C30.8695 311.052 38.7523 302.01 46.1797 283.259L47.9442 283.964C40.4622 302.637 39.849 314.658 46.0724 320.722C57.796 332.17 95.4422 323.674 164.575 294.041L165.321 295.78C96.1879 325.413 64.0821 346.836 64.2818 363.203C64.3817 371.892 73.4782 379.854 92.1926 387.195L91.4869 388.959C72.8048 381.502 60.7836 380.889 54.7298 387.087C43.3306 398.687 51.7404 436.37 81.4182 505.608ZM6.62373 404.619C8.40497 403.831 10.3276 403.413 12.2751 403.391C26.1056 403.228 42.3776 422.983 63.6663 466.451C46.8485 421.066 43.7629 395.66 53.4176 385.755C58.2809 380.767 66.3406 379.681 77.8947 382.471C67.6253 376.576 62.5251 370.155 62.4328 363.214C62.263 349.366 82.0174 333.094 125.493 311.822C80.1084 328.64 54.7019 331.726 44.7901 322.054C39.8268 317.2 38.7229 309.148 41.5057 297.577C35.6113 307.846 29.2145 312.956 22.2483 313.038C8.42534 313.218 -7.84675 293.464 -29.1255 249.971C-12.3176 295.38 -9.23197 320.787 -18.8941 330.674C-23.7401 335.654 -31.8171 336.748 -43.3712 333.958C-33.1018 339.853 -28.0017 346.274 -27.9093 353.215C-27.7396 367.063 -47.494 383.335 -90.9698 404.607C-45.585 387.789 -20.1784 384.703 -10.2667 394.375C-5.30334 399.229 -4.19197 407.298 -6.98226 418.852C-2.68816 411.287 1.88938 406.545 6.65599 404.502L6.62373 404.619Z" fill="white"/>
<path d="M69.5395 477.895L67.7999 478.641C43.7369 422.503 26.3784 396.419 13.132 396.598C6.14845 396.688 -0.143811 404.06 -6.2045 419.178L-7.96905 418.472C-1.92576 403.362 -1.41434 393.649 -6.40998 388.768C-15.8818 379.546 -46.4302 386.442 -102.586 410.512L-103.331 408.773C-47.1759 384.702 -21.109 367.351 -21.2638 354.115C-21.3537 347.131 -28.7253 340.839 -43.8509 334.761L-43.1452 332.996C-28.0345 339.04 -18.3395 339.559 -13.4588 334.563C-4.19426 325.094 -11.1149 294.535 -35.1555 238.449L-33.4159 237.704C-9.35293 293.842 8.00556 319.926 21.2346 319.754C28.2082 319.689 34.5104 312.292 40.5711 297.174L42.3357 297.88C36.2924 312.991 35.781 322.703 40.7766 327.584C50.2484 336.806 80.7968 329.91 136.952 305.84L137.698 307.579C81.5425 331.65 55.4756 349.001 55.6305 362.237C55.7203 369.221 63.0919 375.513 78.2176 381.591L77.5118 383.356C62.4185 377.305 52.7061 376.794 47.8253 381.789C38.5559 391.199 45.4766 421.757 69.5395 477.895ZM8.50441 395.699C9.9572 395.066 11.5224 394.731 13.1071 394.714C24.1217 394.565 36.9813 409.769 53.6518 443.232C40.9427 408.153 38.7818 388.363 46.4559 380.42C50.2829 376.473 56.5383 375.501 65.4033 377.446C57.6341 372.725 53.7917 367.7 53.7242 362.21C53.5994 351.205 68.8034 338.346 102.249 321.683C67.1704 334.392 47.373 336.535 39.4371 328.879C35.5077 325.044 34.5182 318.796 36.4562 309.914C31.7595 317.693 26.7171 321.543 21.2446 321.603C10.2225 321.735 -2.61966 306.524 -19.2827 273.078C-6.57361 308.157 -4.4302 327.954 -12.1042 335.897C-15.9288 339.802 -22.1866 340.816 -31.0591 338.853C-23.2899 343.575 -19.4474 348.6 -19.38 354.09C-19.2378 365.087 -34.4592 377.954 -67.9049 394.617C-32.8436 381.916 -13.0288 379.765 -5.0929 387.421C-1.16349 391.256 -0.174015 397.504 -2.11201 406.386C1.30987 400.821 4.83379 397.272 8.57401 395.669L8.50441 395.699Z" fill="white"/>
<path d="M57.7057 450.287L55.9661 451.033C37.4733 407.89 24.1512 387.859 14.071 387.979C8.78488 388.042 3.97621 393.686 -0.635776 405.218L-2.39287 404.53C2.22905 392.973 2.63872 385.569 -1.13908 381.896C-8.29453 374.811 -31.8172 380.178 -74.9602 398.671L-75.7059 396.931C-32.5629 378.438 -12.525 365.134 -12.6523 355.036C-12.7073 349.767 -18.3516 344.959 -29.9083 340.337L-29.1951 338.59C-17.6633 343.202 -10.2597 343.611 -6.56181 339.843C0.505857 332.695 -4.84375 309.165 -23.3439 266.005L-21.6043 265.259C-3.10411 308.42 10.2006 328.458 20.2808 328.338C25.5595 328.258 30.3681 322.614 34.9801 311.082L36.7372 311.77C32.1153 323.327 31.7056 330.73 35.4834 334.403C42.6389 341.488 66.1616 336.121 109.305 317.629L110.05 319.368C66.9073 337.861 46.8693 351.166 46.9967 361.263C47.0516 366.532 52.6959 371.341 64.2526 375.963L63.5395 377.71C52.0076 373.098 44.5866 372.696 40.9136 376.473C33.9454 383.661 39.213 407.144 57.7057 450.287ZM10.4226 386.866C11.5643 386.368 12.7932 386.1 14.0386 386.078C22.235 385.983 31.774 396.803 43.8984 420.477C35.1116 395.414 33.8209 381.017 39.5591 375.139C42.4269 372.221 46.9028 371.373 53.2005 372.566C47.8098 369.07 45.1628 365.344 45.1129 361.288C45.018 353.092 55.8208 343.56 79.5121 331.429C54.4115 340.128 40.0518 341.506 34.1738 335.768C31.256 332.9 30.3908 328.432 31.5834 322.134C28.0795 327.507 24.3617 330.172 20.3057 330.222C12.1094 330.316 2.57782 319.514 -9.53666 295.815C-0.836844 320.915 0.523407 335.283 -5.21472 341.161C-8.08254 344.078 -12.5584 344.926 -18.8487 343.751C-13.4654 347.23 -10.811 350.973 -10.7611 355.029C-10.6662 363.225 -21.4765 372.739 -45.1677 384.871C-20.0671 376.171 -5.69996 374.811 0.177996 380.549C3.09585 383.417 3.95354 387.868 2.76843 394.183C4.55884 391.023 7.24699 388.466 10.4922 386.836L10.4226 386.866Z" fill="white"/>
<path d="M45.8642 422.662L44.1246 423.407C31.202 393.259 21.9884 379.355 14.9501 379.365C11.3863 379.41 8.09603 383.312 4.90541 391.29L3.14826 390.602C6.34882 382.599 6.63933 377.512 4.08932 375.022C-0.874013 370.168 -17.2616 373.877 -47.4095 386.8L-48.1552 385.06C-18.0073 372.138 -3.99839 362.879 -4.11311 355.886C-4.14065 352.314 -8.04271 349.024 -16.038 345.841L-15.3322 344.076C-7.35436 347.267 -2.25959 347.575 0.230492 345.025C5.09386 340.037 1.375 323.674 -11.5476 293.526L-9.80791 292.78C3.11464 322.928 12.3655 336.92 19.3665 336.822C22.9304 336.777 26.2206 332.875 29.4112 324.898L31.1758 325.603C27.9852 333.581 27.6773 338.676 30.2273 341.166C35.1907 346.019 51.5782 342.311 81.7261 329.388L82.4718 331.128C52.3239 344.05 38.315 353.309 38.4297 360.302C38.4747 363.866 42.3767 367.156 50.3621 370.364L49.6488 372.111C41.671 368.921 36.5762 368.613 34.0861 371.163C29.2576 376.136 32.9491 392.531 45.8642 422.662ZM12.3157 378.023C13.1579 377.665 14.0619 377.473 14.9774 377.459C20.5095 377.394 26.6112 383.798 34.3536 398.21C29.2381 382.672 28.8001 373.82 32.6694 369.876C34.5457 367.959 37.3764 367.261 41.2634 367.778C38.0921 365.471 36.5237 363.014 36.4938 360.349C36.4114 354.825 42.8255 348.698 57.2445 340.973C41.707 346.089 32.8471 346.509 28.9028 342.64C26.994 340.781 26.2955 337.95 26.8122 334.063C24.506 337.235 22.0482 338.803 19.3666 338.84C13.8344 338.905 7.73278 332.501 0.00779299 318.082C5.10593 333.627 5.54384 342.48 1.67452 346.424C-0.184345 348.333 -3.03242 349.039 -6.902 348.515C-3.83506 350.865 -2.16237 353.279 -2.1324 355.943C-2.06747 361.475 -8.48154 367.601 -22.8832 375.319C-7.36302 370.211 1.51426 369.783 5.45858 373.652C7.36736 375.511 8.04851 378.349 7.54919 382.229C8.7304 380.423 10.3772 378.97 12.3157 378.023V378.023Z" fill="white"/>
<path d="M34.0305 395.054L32.2909 395.8C29.6214 389.572 21.5159 370.662 15.924 370.732C14.0825 370.759 12.2733 372.976 10.5165 377.333L8.76936 376.62C10.5088 372.27 10.7273 369.417 9.38772 368.118C5.41109 364.221 -13.5162 372.334 -19.7267 374.996L-20.4724 373.256C-14.2619 370.594 4.66542 362.481 4.58557 356.914C4.57553 355.065 2.35111 353.239 -1.99819 351.499L-1.30991 349.742C3.03939 351.482 5.91733 351.71 7.19965 350.378C11.1062 346.377 3.00077 327.467 0.331257 321.239L2.07089 320.493C4.74041 326.721 12.8459 345.631 18.4203 345.568C20.2694 345.558 22.071 343.324 23.8279 338.967L25.5751 339.68C23.8356 344.03 23.6245 346.9 24.9567 348.182C28.9333 352.079 47.8606 343.966 54.0711 341.304L54.8168 343.044C48.6063 345.706 29.679 353.819 29.7589 359.386C29.7764 361.252 31.9933 363.061 36.3426 364.801L35.6543 366.558C31.2876 364.826 28.4345 364.607 27.1447 365.922C23.2555 369.916 31.361 388.826 34.0305 395.054ZM14.1992 369.206C14.7365 368.975 15.3143 368.853 15.8991 368.848C18.7845 368.806 21.8838 371.616 25.6294 377.856C23.6756 370.848 23.7772 366.665 25.7976 364.605C26.3117 364.102 26.9268 363.715 27.6021 363.468C28.2773 363.221 28.9973 363.121 29.7143 363.173C29.1607 362.711 28.7096 362.138 28.3899 361.492C28.0702 360.845 27.889 360.139 27.8577 359.418C27.8227 356.55 30.6432 353.426 36.891 349.698C29.8827 351.652 25.6826 351.557 23.6222 349.537C23.1219 349.017 22.7355 348.399 22.4877 347.722C22.2399 347.044 22.1361 346.323 22.183 345.603C21.7275 346.159 21.1583 346.612 20.5138 346.931C19.8692 347.25 19.164 347.428 18.4453 347.452C15.5599 347.495 12.4606 344.684 8.7324 338.436C10.6688 345.452 10.5671 349.635 8.54674 351.695C8.03264 352.198 7.41761 352.585 6.74237 352.832C6.06712 353.079 5.34711 353.179 4.63009 353.127C5.1837 353.589 5.63474 354.162 5.95444 354.809C6.27414 355.455 6.45545 356.161 6.48677 356.882C6.52918 359.767 3.70114 362.874 -2.54659 366.602C4.46173 364.648 8.66928 364.76 10.7222 366.763C11.2225 367.283 11.6089 367.901 11.8567 368.578C12.1045 369.256 12.2083 369.977 12.1614 370.697C12.7479 370.046 13.4663 369.528 14.2688 369.176L14.1992 369.206Z" fill="white"/>
</g>
<g filter="url(#filter0_f_79_2338)">
<circle cx="83" cy="1045" r="109" fill="#351286"/>
</g>
<g filter="url(#filter1_f_79_2338)">
<circle cx="1889" cy="75" r="109" fill="#351286"/>
</g>
</g>
<defs>
<filter id="filter0_f_79_2338" x="-226" y="736" width="618" height="618" filterUnits="userSpaceOnUse" color-interpolation-filters="sRGB">
<feFlood flood-opacity="0" result="BackgroundImageFix"/>
<feBlend mode="normal" in="SourceGraphic" in2="BackgroundImageFix" result="shape"/>
<feGaussianBlur stdDeviation="100" result="effect1_foregroundBlur_79_2338"/>
</filter>
<filter id="filter1_f_79_2338" x="1580" y="-234" width="618" height="618" filterUnits="userSpaceOnUse" color-interpolation-filters="sRGB">
<feFlood flood-opacity="0" result="BackgroundImageFix"/>
<feBlend mode="normal" in="SourceGraphic" in2="BackgroundImageFix" result="shape"/>
<feGaussianBlur stdDeviation="100" result="effect1_foregroundBlur_79_2338"/>
</filter>
<clipPath id="clip0_79_2338">
<rect width="1920" height="1080" fill="white"/>
</clipPath>
</defs>
</svg>
