<svg width="1919" height="306" viewBox="0 0 1919 306" fill="none" xmlns="http://www.w3.org/2000/svg">
<g clip-path="url(#clip0_79_4950)">
<g opacity="0.4">
<path d="M766.154 -84L-22.9998 325" stroke="#B3B3B3"/>
<path d="M814.266 -84L386.796 325" stroke="#B3B3B3"/>
<path d="M862.378 -84L621.869 325" stroke="#B3B3B3"/>
<path d="M910.49 -84L800.123 325" stroke="#B3B3B3"/>
<path d="M958.603 -84V325" stroke="#B3B3B3"/>
<path d="M1006.71 -84L1117.08 325" stroke="#B3B3B3"/>
<path d="M1054.83 -84L1295.34 325" stroke="#B3B3B3"/>
<path d="M1102.94 -84L1530.41 325" stroke="#B3B3B3"/>
<path d="M1151.05 -84L1940.2 325" stroke="#B3B3B3"/>
<path d="M602.458 0.8396H1314.74" stroke="#B3B3B3"/>
<path d="M567.766 18.8199H1349.44" stroke="#B3B3B3"/>
<path d="M526.887 40.0062H1390.32" stroke="#B3B3B3"/>
<path d="M478.918 64.8674H1438.29" stroke="#B3B3B3"/>
<path d="M422.847 93.9279H1494.36" stroke="#B3B3B3"/>
<path d="M357.548 127.771H1559.65" stroke="#B3B3B3"/>
<path d="M281.772 167.044H1635.43" stroke="#B3B3B3"/>
<path d="M194.135 212.464H1723.07" stroke="#B3B3B3"/>
<path d="M93.1069 264.825H1824.1" stroke="#B3B3B3"/>
</g>
</g>
<defs>
<clipPath id="clip0_79_4950">
<rect width="1920" height="306" fill="white" transform="translate(-1)"/>
</clipPath>
</defs>
</svg>
